<svg id="Layer_1" data-name="Layer 1" xmlns="http://www.w3.org/2000/svg" viewBox="0 0 761.46 761.08"><defs><style>.cls-1{fill:none;stroke:#7a133e;stroke-miterlimit:10;stroke-width:7.61px;}</style></defs><path class="cls-1" d="M812.49,295.83c4.08.56,8.21.75,14,1.26-2.24-4.78-3.21-7.58-4.76-10-12.09-19-38.42-29.14-62-24.54-31.11,6.06-56,21-72.4,48.88-1.81,3.1-4.45,5.72-7.74,9.85,0-3.35-.39-5,.06-6.27,9.41-27.28,4.23-53.75-5.52-79.47-5.61-14.81-13.68-28.69-20.5-43.06-8.88-18.7-14.37-38.09-10.6-59,3.27-18.19,13.17-31.26,30.5-38.32L691.15,88c-4.41-2.46-6.47-4.32-8.81-4.81-19.4-4-38.32-2-56,6.88a123.88,123.88,0,0,0-40.93,33.05c-15.18,18.69-25.26,39.52-29.06,63.39-1.37,8.62-3.5,17.12-5.76,28-4.7-12-8.22-21.89-12.42-31.5-9.91-22.65-21.73-44.29-39.12-62.11-15.81-16.19-34.84-28.2-55.54-37.08-8.08-3.46-17.23-4.42-25.9-6.52-.38,3.42,0,4.55.59,5.58a11.58,11.58,0,0,0,2.12,3c13,11.4,16,26.94,15.9,42.76-.19,29.2-1.79,58.39-2.79,87.58-.08,2.4,0,4.81,0,8a14.5,14.5,0,0,1-2.68-1.71c-17.67-21.29-41.34-31.6-68-32.46-22.13-.72-44.59,1.41-66.56,4.61-30.88,4.5-56-7.89-63.35-39.49-.79-3.41-2.48-6.62-3.74-9.92l-2.47-.25c-2.25,5.81-4.71,11.55-6.72,17.45-7.76,22.76-7.8,45.13,5.48,66a235.48,235.48,0,0,0,21.52,28.5c13.73,15.66,29,29.54,48.72,37.68,6.1,2.52,11.86,5.87,17.77,8.84-.24.78-.47,1.56-.71,2.34-1.86.26-3.84,1.07-5.57.7-18.1-3.86-35.86-.6-53.33,3.33-27.06,6.09-52.72,15.25-73.09,35.8-9.43,9.52-21.06,17.48-34.59,19.3-12.66,1.71-26.06,2.38-38.51.09C92.22,362.09,90,347.44,87.12,334.55c-.9-3.94-2.27-7.76-3.42-11.64l-2.36.26c-1.1,2.42-2.92,4.76-3.18,7.26-1.27,12.41-2.57,24.84-3,37.3-.56,15.09,4.88,28.71,12.26,41.56a132.61,132.61,0,0,0,34.46,39.14c20.11,15.52,42,26.22,68,26.91,4.63.12,9.22,1.63,15.83,2.87-3.51,2.5-5.22,3.46-6.62,4.76C189,492.25,178,500.75,169.19,511.14c-15.34,18.15-18.37,42-25.45,63.68-6.53,20-26.82,28.93-44.12,16.91-5.19-3.61-9.65-8.28-14.84-12.81-4.53,8.31-.6,15.29,2.28,22.49,13.46,33.72,40.48,47.4,72.3,46.65,14.3-.34,28.62-5.11,42.67-8.86,10.68-2.84,10.3-3.39,14.33,7.29,4.53,12,8.93,24.2,14.65,35.68,15.14,30.4,35.09,57.09,60.89,79.59,26.27,22.93,56.22,38.82,88.55,50.91,24.3,9.09,49.2,15.48,75.18,16.64a409.07,409.07,0,0,0,41.14-.06c14.91-.83,30.12-1.38,44.55-4.79,47.31-11.17,91-30.06,128.64-62,19.88-16.9,36.68-36.22,49.22-58.84,17.35-31.28,32.33-63.75,38.93-99.28,1.08-5.83,3.77-6.2,8.15-6,10.27.54,20.56,1.57,30.82,1.37,9.9-.19,18.69-3.87,26.11-12.59-5.71-2-10.47-3.83-15.28-5.46-17.84-6.06-26.49-25.11-25-40.07,1.6-16.15,4.43-32.38,3.94-48.49-.5-16.57-5.94-29.61-27.44-36.33-2.6-.81-4.94-2.41-8.08-4,1.87-1.69,2.72-2.57,3.68-3.31,8.67-6.61,15.53-14.25,18.77-25.23,5.67-19.26,2.45-38.16-1.09-57.06-3.22-17.25-6.52-34.32,2.72-50.84C783.7,301.53,793.47,293.21,812.49,295.83Z" transform="translate(-71.29 -72.52)"/><path class="cls-1" d="M497,562.25c13.27-1.49,20-13,19.28-25.13-1.34-21.46-13.38-42.3-34.83-48.06-17.14-4.6-32.56.09-46.75,10-16.2,11.3-25.28,27.42-28.83,46.26-4.19,22.24-1.33,44.21,7.43,65.07,13.46,32.06,38.05,52.15,71.11,60.72,50,12.95,104.42-5.27,131.24-56.37a154.51,154.51,0,0,0,17.07-91.41c-4.78-40.8-20.44-77.55-52.27-105.21a151.38,151.38,0,0,0-80.15-36.34c-10.62-1.44-21.39-3.27-32-2.89-38.26,1.37-72.84,13.37-103,37.56-35.29,28.28-55.09,65.47-63.08,109.32-2.9,15.88-6,32.1-5.78,48.11.54,37.85,9.36,73.89,30.88,105.74,8.76,12.95,17.43,26.42,28.5,37.23,22.73,22.2,50.45,36.24,81.08,45.15a252.11,252.11,0,0,0,77.48,10.42c28.66-.73,55.93-7.39,82.34-18.26a214,214,0,0,0,76.75-53.33,236.68,236.68,0,0,0,44.71-70.9c5.64-13.69,10.17-27.84,15.55-41.65.56-1.42,4.31-3.15,5.25-2.57,2.58,1.59,6.45,4.5,6.27,6.58-.85,10.11-1.66,20.5-4.68,30.09-9.26,29.38-21.2,57.76-37.85,83.78-17.58,27.48-42.25,47.78-69.72,64.64-24.42,15-50.42,26.71-78.61,32.5a333.72,333.72,0,0,1-40.61,5.45c-34.84,2.76-69-2.06-102.18-12.37a243,243,0,0,1-78.19-40.48c-32.62-25.51-58.71-56.17-75.83-94.12-9.34-20.71-15.62-42.3-17.65-65-1.38-15.47-3.32-31-2.87-46.5,1.24-41.9,8.44-82.72,29.36-119.74,34.5-61,84.93-102,153.74-118.47a249.44,249.44,0,0,1,75.36-6.25c38.1,2.62,72.2,16.6,102.33,39.87,13.42,10.37,27,20.83,38.8,33,31.05,32,51.81,69.7,57.12,114.53,2.27,19.15,3.83,38.66,2.81,57.85-1.25,23.55-7.66,46.47-17.4,68.06-11.74,26-25.83,50.53-47.18,70.36-14.16,13.16-30.56,22.2-48,29.58a179.55,179.55,0,0,1-84.11,13.65c-33.34-2.48-63.9-12.81-90.32-34.3-25.44-20.68-44.07-45.95-54.41-77.13-13-39.17-9.71-77.66,6.33-115.13,17.56-41,49.83-65.1,92.23-75.31,22.56-5.44,45-1,66.23,8.35,34,15,57,40.09,65.19,76.46,5.91,26.48,5.22,53.49-9.38,77.73-12.9,21.41-32.75,33.37-57.3,37.64-23,4-42.74-2.7-57.57-20.29a64.56,64.56,0,0,1-13.52-27.52c-2.38-11.7-2.24-24.42-.5-36.31,1.47-10,7.88-18.65,17.58-23.81,16.51-8.78,33.55,2.5,34.93,21.06C499.71,549.89,497.85,555.79,497,562.25Z" transform="translate(-71.29 -72.52)"/></svg>