<svg id="Layer_1" data-name="Layer 1" xmlns="http://www.w3.org/2000/svg" viewBox="0 0 20.56 20.68"><defs><style>.cls-1{fill:#af1b45;fill-rule:evenodd;}</style></defs><path class="cls-1" d="M20,14a4.1,4.1,0,0,0,.1-1.1,1.1,1.1,0,0,0-.8-1.2c-.2,0-.2-.1,0-.2a1.43,1.43,0,0,0,.6-1.2,3.75,3.75,0,0,0-.1-1.1,2,2,0,0,1,.1-1.3.85.85,0,0,1,1.1-.7h.1s-.1-.3-.2-.3a2.11,2.11,0,0,0-2.6-.2,2.36,2.36,0,0,0-.8.9,1.38,1.38,0,0,1-.3.4c-.1,0,.1-.5.1-.7a3.4,3.4,0,0,0-.2-1.4,3.1,3.1,0,0,0-.6-1.3,3.29,3.29,0,0,1-.4-1.7,1.39,1.39,0,0,1,1.1-1.4c.1,0,.2,0,.2-.1s-.1-.1-.2-.1a2.54,2.54,0,0,0-2.2.8A4.53,4.53,0,0,0,13.9,4a3.55,3.55,0,0,1-.2,1,6.89,6.89,0,0,1-.3-.8c-.1-.3-.3-.6-.4-.9a4,4,0,0,0-1-1.2,6.38,6.38,0,0,0-1.4-.8c-.2,0-.3-.1-.5-.1v.1a1.66,1.66,0,0,1,.5,1.2c0,.9-.1,1.8-.1,2.7-.1.2-.4-.2-.5-.3a3.08,3.08,0,0,0-1.9-.6,10.87,10.87,0,0,0-1.5.2,1.39,1.39,0,0,1-1.1-.2,2,2,0,0,1-.7-1.1c-.1-.2-.2.3-.2.4a1.84,1.84,0,0,0,.3,2,4.25,4.25,0,0,0,2,1.7c.1,0,.3.1.3.2s-.2.1-.3,0A5.59,5.59,0,0,0,4.4,8a4.13,4.13,0,0,0-1.1.7,1.87,1.87,0,0,1-1.9.4c-.3,0-.4-.3-.5-.5S.9,8,.8,8a2.53,2.53,0,0,0-.2,1.7,3.41,3.41,0,0,0,3,2.5c.1,0,.5,0,.5.1s-.4.3-.6.5A2.33,2.33,0,0,0,2.7,14c-.1.3-.2.7-.3,1a.75.75,0,0,1-1,.5,1.38,1.38,0,0,1-.4-.3c0-.1-.1-.1-.2-.2a.75.75,0,0,0,.1.5A1.93,1.93,0,0,0,3,16.86a2,2,0,0,0,1.1-.3c.1-.1.2,0,.2.1a7.33,7.33,0,0,0,4.1,4.5,6.64,6.64,0,0,0,2,.6,11.3,11.3,0,0,0,2.6,0,8.49,8.49,0,0,0,2.8-1A6.43,6.43,0,0,0,18.4,18a6.31,6.31,0,0,0,.8-2.3.22.22,0,0,1,.2-.2,2.44,2.44,0,0,0,1.2,0,.32.32,0,0,0,.3-.3l-.4-.1A1,1,0,0,1,20,14Z" transform="translate(-0.54 -1.16)"/></svg>