<svg id="Layer_1" data-name="Layer 1" xmlns="http://www.w3.org/2000/svg" viewBox="0 0 11.96 11.74"><defs><style>.cls-1{fill:#af1b45;fill-rule:evenodd;}</style></defs><path class="cls-1" d="M17.7,16.8A4.82,4.82,0,0,1,16.2,19a6.41,6.41,0,0,1-4.6,1.5,5.83,5.83,0,0,1-5.4-5.3,5.43,5.43,0,0,1,.9-3.9,5.34,5.34,0,0,1,4.4-2.5,4,4,0,0,1,2.6.6,5,5,0,0,1,2.7,3.5A5.41,5.41,0,0,1,16,17a2.93,2.93,0,0,1-1.6,1.3,4.16,4.16,0,0,1-2.9.2,3.75,3.75,0,0,1-2.7-4.1,3.18,3.18,0,0,1,2-2.7,2.72,2.72,0,0,1,3.5,3.2,1.75,1.75,0,0,1-2.2,1.3,1.36,1.36,0,0,1-1-1.2v-.6a.55.55,0,0,1,.3-.5.75.75,0,0,1,.8-.1.78.78,0,0,1,.2.8l-.1.1a.43.43,0,0,0,.4-.4,1,1,0,0,0-.5-1.1,1.05,1.05,0,0,0-1.3,0,1.84,1.84,0,0,0-.8,1.8,2.48,2.48,0,0,0,2.7,2.3.9.9,0,0,0,.5-.1,2.65,2.65,0,0,0,1.9-1.8,3.68,3.68,0,0,0-2.3-4.7,3.87,3.87,0,0,0-2.8.1,4.05,4.05,0,0,0-2.3,2.8,4.88,4.88,0,0,0,.8,4.2,4.5,4.5,0,0,0,1.9,1.4,5.24,5.24,0,0,0,3.5.1,5.74,5.74,0,0,0,3.1-2.4,10.09,10.09,0,0,0,.7-1.5c0-.1,0-.2.1-.2a.22.22,0,0,1,.2.2h0A7.37,7.37,0,0,1,17.7,16.8Z" transform="translate(-6.14 -8.77)"/></svg>